<?xml version="1.0" encoding="utf-8" ?><svg xmlns="http://www.w3.org/2000/svg" xmlns:xlink="http://www.w3.org/1999/xlink" width="537" height="537" viewBox="0 0 537 537"><path fill="currentColor" d="M143.451 155.735C161.68 170.847 208.467 177.144 232.444 178.936C274.889 182.109 320.421 180.626 361.697 169.607C369.045 167.646 376.372 165.159 383.249 161.991C386.466 160.508 389.549 158.243 392.747 156.875L393.039 157.057L393.039 157.833C393.406 163.961 393.087 172.679 393.137 179.109C393.281 196.26 393.335 213.413 393.299 230.565L393.403 375.087L393.509 449.909C393.508 454.453 393.829 475.732 393.065 478.858C392.291 481.437 390.895 483.673 389.056 485.624C375.905 499.574 335.737 508.542 316.577 511.162C303.321 512.975 289.845 513.698 276.478 514.102C243.314 515.102 208.964 511.497 177.389 501.157C167.922 498.057 155.864 493.297 148.594 486.354C146.281 484.145 143.958 480.617 143.626 477.396C143.247 473.72 143.47 469.835 143.477 466.14L143.528 445.611L143.611 382.299L143.595 242.184C143.597 213.797 144.002 184.067 143.451 155.735ZM316.395 483.513C317.234 482.958 318.78 482.115 318.796 481.052C319.1 461.016 318.931 440.92 318.973 420.872C318.981 417.004 318.524 415.012 314.059 415.364C310.813 417.824 311.724 422.733 311.717 426.599L311.709 440.569L311.694 464.406C311.68 468.324 311.179 477.964 312.294 482.116C312.574 483.159 315.165 483.574 316.395 483.513ZM198.063 478.521C199.025 477.979 200.791 477.101 200.828 475.942C201.465 456.132 200.925 436.166 201.05 416.331C201.073 412.752 200.431 411.094 196.639 411.146C195.837 411.538 194.101 412.524 194.063 413.51C193.322 432.877 193.89 452.493 193.777 471.914C193.756 475.544 193.76 478.393 198.063 478.521ZM362.111 471.139C363.011 470.788 365.378 469.904 365.402 468.852C365.866 449.036 365.382 429.105 365.509 409.259C365.531 405.924 365.212 404.422 361.677 403.81C358.967 404.56 358.436 405.412 358.391 408.163C358.09 426.836 358.298 445.522 358.156 464.198C358.126 468.214 357.482 470.255 362.111 471.139ZM338.492 478.598C339.715 478.17 340.97 477.749 341.608 476.527C342.042 475.695 342.011 474.759 342.038 473.846C342.207 468.293 342.325 414.515 341.572 412.899C341.092 411.871 340.19 411.325 339.124 411.056C338.563 410.915 337.981 410.907 337.406 410.901C335.388 411.937 334.685 413.014 334.647 415.308C334.492 424.66 334.688 434.045 334.714 443.393L334.82 462.989C334.831 466.571 334.775 470.142 334.88 473.724C334.972 476.862 335.653 477.467 338.492 478.598ZM384.872 392.492C383.848 392.966 382.839 393.335 382.379 394.456C381.458 396.7 381.683 448.854 381.885 454.661C381.924 455.791 381.888 457.149 382.355 458.196C382.864 459.337 383.731 459.747 384.861 460.14C385.235 460.271 385.142 460.238 385.54 460.321C386.607 459.758 387.917 459.236 388.436 458.069C389.072 456.642 389.046 398.106 388.425 394.135C387.318 393.393 386.238 392.53 384.872 392.492ZM222.309 483.076C223.11 482.499 224.062 481.952 224.15 480.961C224.363 478.575 224.351 475.854 224.346 473.467L224.246 457.994C224.239 445.201 224.535 432.379 224.365 419.58C224.323 416.452 222.985 415.28 219.889 415.552C218.967 416.104 217.579 417.028 217.503 418.164C217.08 424.494 217.248 432.13 217.25 438.423L217.299 465.488C217.315 469.794 217.385 474.144 217.358 478.445C217.34 481.368 218.766 484.774 222.309 483.076ZM288.069 434.715C288.441 448.229 288.001 461.885 288.183 475.414C288.21 477.438 288.267 479.674 288.171 481.674C288.485 484.274 289.324 486.21 292.149 486.655C296.576 487.354 295.275 475.707 295.264 473.369L295.205 455.438L295.273 432.765C295.292 428.746 295.334 424.757 295.255 420.718C295.505 418.141 290.89 416.652 289.507 418.455C287.02 421.699 288.117 430.66 288.069 434.715ZM243.296 417.974C242.232 418.754 241.065 419.606 240.91 421.02C240.633 423.551 240.687 426.441 240.678 428.988L240.667 443.775L240.663 468.314C240.663 472.691 240.609 477.065 240.707 481.441C240.778 484.586 241.388 486.577 244.973 486.544C245.879 486.076 247.577 485.225 247.642 484.16C248.007 478.136 247.776 470.383 247.777 464.418L247.808 436.987C247.821 432.307 247.859 427.626 247.84 422.946C247.825 419.331 247.353 417.834 243.296 417.974ZM173.099 404.363C172.052 404.885 171.167 405.277 170.673 406.412C170.174 407.56 170.139 468.004 170.787 469.307C171.233 470.204 172.122 470.634 173.052 470.838C173.81 471.005 174.424 470.881 175.171 470.706C178.473 468.582 177.477 465.201 177.446 461.512L177.359 448.011C177.338 434.78 177.557 421.551 177.435 408.321C177.405 405.119 176.202 404.297 173.099 404.363ZM269.383 487.472C270.293 486.923 271.507 486.326 271.576 485.24C271.694 483.381 271.624 481.081 271.601 479.225C271.546 475.214 271.516 471.203 271.511 467.192L271.507 439.975C271.529 434.091 271.548 428.21 271.447 422.327C271.401 419.64 270.034 418.64 267.454 418.46C266.151 419.112 265.325 419.701 264.845 421.123C264.143 423.201 264.369 476.687 264.495 482.362C264.519 483.409 264.437 485.29 264.96 486.18C265.469 487.047 266.713 487.509 267.662 487.602C268.254 487.661 268.801 487.587 269.383 487.472ZM150.054 392.559C148.986 393.102 147.775 393.784 147.566 395.062C147.082 398.017 147.203 401.573 147.228 404.564C147.37 421.435 147.034 438.305 147.181 455.174C147.208 458.29 147.639 459.552 150.945 460.131C151.65 459.808 153.791 458.941 153.827 458.036C154.634 437.792 154.025 417.367 154.163 397.08C154.185 393.939 153.348 392.471 150.054 392.559Z"/><path fill="#FEFDFE" d="M264.864 212.63C278.099 210.656 290.43 219.779 292.414 233.013C294.397 246.246 285.282 258.584 272.05 260.576C258.805 262.571 246.453 253.445 244.467 240.199C242.482 226.952 251.616 214.606 264.864 212.63Z"/><path fill="currentColor" d="M271.422 219.308C293.056 225.565 288.905 253.259 267.649 253.708C262.778 253.811 258.444 251.132 255.13 247.62C253.709 245.985 252.618 244.09 251.918 242.039C248.206 231.159 255.194 222.843 265.189 219.441C265.122 222.783 264.507 233.572 265.922 234.963C273.46 242.37 271.446 220.99 271.422 219.308Z"/><path fill="currentColor" d="M393.016 48.1981C393.314 55.3818 393.015 64.2877 393.007 71.6165L393.078 114.259L393.111 135.763C393.125 138.12 393.338 145.196 393 147.244C375.455 167.149 300.638 173.189 274.487 173.363C242.41 173.577 167.334 169.724 143.859 147.115C143.461 144.564 143.625 135.394 143.622 132.226L143.58 102.956L143.618 65.2458C143.624 62.2781 143.429 50.8542 143.824 48.7403C146.145 49.7191 148.26 51.7025 150.4 53.0631C152.605 54.4653 155.112 55.6539 157.481 56.7636C174.111 64.5535 193.24 68.4118 211.367 70.6123C225.384 72.3139 239.591 73.7739 253.702 74.2823C289.258 75.5632 348.824 72.1757 380.604 56.4189C385.191 54.1444 389.008 51.3368 393.016 48.1981ZM158.623 145.665C159.323 146.004 160.111 146.408 160.814 146.717C219.481 163.825 284.162 165.391 344.21 154.553C355.304 152.551 367.831 149.784 378.402 145.995C378.803 137.276 378.434 128.409 378.555 119.676C378.632 114.056 378.651 108.369 378.538 102.75C378.499 100.8 377.742 100.364 375.934 100.006C372.414 100.564 367.623 102.393 364.015 103.312C356.791 105.153 349.394 107.153 342.075 108.521C303.51 115.397 264.184 116.949 225.197 113.134C209.236 111.551 196.458 109.069 180.994 105.453C177.411 104.647 173.845 103.767 170.298 102.813C167.178 101.946 164.176 100.81 160.959 100.416C159.259 99.9939 158.411 101.909 158.365 103.32C158.054 112.888 158.206 122.502 158.22 132.08C158.226 136.217 158.012 141.663 158.623 145.665Z"/><path fill="currentColor" d="M318.593 131.451L319.196 131.502C319.893 132.396 319.529 137.548 319.487 138.973C310.377 140.122 301.224 140.899 292.051 141.303C285.515 141.627 278.948 141.675 272.405 142.017L272.121 141.831C271.355 140.745 271.617 135.969 271.632 134.367C285.216 134.654 305.003 133.118 318.593 131.451Z"/><path fill="currentColor" d="M217.093 131.33C221.146 132.005 226.737 132.447 230.939 132.837C242.242 133.97 253.597 134.518 264.957 134.481C265.008 136.961 265.009 139.442 264.958 141.922C248.971 141.811 232.999 140.895 217.103 139.178C216.954 136.834 216.974 133.641 217.093 131.33Z"/><path fill="currentColor" d="M318.463 145.122C319.076 144.996 318.767 145.006 319.392 145.224C319.89 146.692 319.638 150.966 319.587 152.747C314.071 152.955 307.235 153.762 301.668 154.173C292.095 154.939 282.495 155.3 272.892 155.256C272.637 155.252 272.419 155.15 272.157 155.066C271.424 153.611 271.759 149.633 271.831 147.797C284.222 147.644 296.543 147.289 308.891 146.078C312.109 145.763 315.228 145.366 318.463 145.122Z"/><path fill="currentColor" d="M217.043 118.14C232.962 119.852 248.953 120.808 264.963 121.007C265.024 123.214 264.959 125.683 264.973 127.925C264.958 127.944 264.945 127.966 264.927 127.981C262.736 129.813 221.018 126.008 217.035 125.652L217.043 118.14Z"/><path fill="currentColor" d="M216.936 145C225.333 145.968 233.755 146.716 242.192 147.243C249.586 147.654 257.476 147.719 264.906 147.829C265.079 149.996 264.975 152.747 265.008 155.008C262.219 156.401 222.983 153.268 217.036 152.465C216.875 150.012 216.928 147.465 216.936 145Z"/><path fill="currentColor" d="M371.367 120.943C371.979 120.798 371.738 120.829 372.399 120.963C373.222 122.176 372.867 126.343 372.819 128.04C367.029 130.173 361.052 131.289 355.083 132.691C345.68 134.9 336.976 136.75 327.295 137.603L326.487 137.61C325.807 136.778 326.013 131.996 325.973 130.558C335.797 129.374 345.826 126.977 355.552 125.091C360.864 124.061 366.094 122.234 371.367 120.943Z"/><path fill="currentColor" d="M164.093 134.278C173.064 136.898 182.651 138.688 191.757 140.899C194.861 141.653 198.185 142.047 201.304 142.635C203.248 143.002 209.175 143.206 210.432 144.352C211.005 146.104 210.881 149.555 210.889 151.545C207.754 151.57 203.037 150.344 199.848 149.877C187.673 148.096 176.199 144.963 164.33 141.791C164.087 139.518 164.125 136.609 164.093 134.278Z"/><path fill="currentColor" d="M372.292 134.566L372.563 134.806C372.836 136.722 372.611 139.846 372.454 141.785C370.234 142.364 367.925 142.964 365.735 143.612C355.058 146.766 344.073 148.723 333.122 150.644C330.842 151.043 328.563 151.418 326.246 151.618C325.813 150.449 325.987 145.425 326.001 143.872C340.793 142.549 357.857 138.114 372.292 134.566Z"/><path fill="currentColor" d="M316.343 118.358L319.697 118.188C319.632 120.548 319.669 123.065 319.662 125.438C314.969 125.613 307.577 126.64 302.614 127.059C293.485 127.742 284.339 128.169 275.186 128.339L271.675 128.423C271.563 125.979 271.604 123.478 271.612 121.027C276.46 121.08 281.527 120.748 286.4 120.587C296.295 120.26 306.528 119.646 316.343 118.358Z"/><path fill="currentColor" d="M164.031 107.149C165.668 107.392 169.53 108.606 171.373 109.082C176.153 110.317 180.949 111.659 185.769 112.751C193.865 114.586 202.38 115.409 210.47 117.06C210.828 119.64 210.762 122.002 210.709 124.597C196.47 122.988 177.858 118.301 164.056 114.86C163.943 112.022 163.905 110.009 164.031 107.149Z"/><path fill="currentColor" d="M371.772 107.338C372.346 107.324 372.089 107.232 372.53 107.651C372.809 109.839 372.666 112.234 372.606 114.456C369.038 115.71 365.191 116.478 361.534 117.457C349.981 120.549 338.399 122.327 326.689 124.425L326.325 124.317C325.551 123.34 325.815 118.647 325.824 117.11C327.716 116.678 330.958 116.152 332.903 115.963C346.111 114.675 358.923 109.662 371.772 107.338Z"/><path fill="currentColor" d="M164.092 120.704C168.336 121.625 172.659 123.447 176.899 124.297C187.99 126.519 199.325 129.073 210.507 130.665C210.779 133.056 210.685 135.026 210.627 137.416L210.156 137.726C197.921 136.687 184.847 133.307 172.903 130.477C170.035 129.798 167.114 128.894 164.278 128.293C164.09 125.423 164.024 123.594 164.092 120.704Z"/><path fill="currentColor" d="M253.048 1.16561C271.998 0.455998 290.974 1.0025 309.852 2.80154C332.287 4.88033 351.535 7.55009 372.62 15.8934C396.365 25.2892 401.652 39.6158 375.494 50.9799C369.213 53.8401 362.628 56.1166 355.934 57.834C332.184 63.9284 308.58 65.8386 284.216 67.0056C247.574 68.3734 210.733 65.7708 175.136 55.9286C145.005 47.5975 127.109 29.5367 166.38 14.9212C193.152 4.95775 224.368 2.04199 253.048 1.16561ZM276.432 56.1078C295.988 55.759 353.928 53.2066 366.967 39.6077C368.532 37.9755 369.563 35.8618 369.407 33.5585C369.245 31.1671 367.758 29.2119 365.986 27.717C352.067 15.9789 302.546 12.8364 283.815 12.0026C276.475 11.6758 268.895 11.2225 261.57 11.656C242.311 12.1823 183.269 14.969 169.982 28.4955C168.419 30.0864 167.34 32.0565 167.46 34.3381C167.586 36.725 169.046 38.7656 170.812 40.2724C178.122 46.5135 191.012 48.8287 200.352 50.5328C225.505 55.1219 250.898 56.3314 276.432 56.1078Z"/><path fill="currentColor" d="M253.945 19.2728C278.32 18.8811 345.125 19.0674 362.608 34.1651C350.451 46.0556 300.062 48.3634 282.332 48.9595C254.418 49.5864 225.832 48.8123 198.41 43.1683C193.826 42.2248 175.947 38.1763 174.733 34.0601C174.857 33.6055 174.845 33.4722 175.183 33.1102C184.745 22.8688 238.505 19.7249 253.945 19.2728Z"/><path fill="currentColor" d="M162.821 502.507L163.299 502.664C167.268 503.979 170.959 505.979 174.884 507.3C188.846 511.998 202.826 514.909 217.377 517.08C252.705 522.399 288.645 522.187 323.908 516.453C331.027 515.267 338.145 514.144 345.082 512.121C351.261 510.32 357.456 508.506 363.54 506.394C367.125 505.149 370.545 503.319 374.186 502.3C374.41 506.443 374.969 511.956 372.087 515.065C368.468 518.968 362.769 521.501 357.936 523.494C337.883 531.765 315.643 533.69 294.241 535.769C289.281 536.251 283.095 536.282 278.391 537L262.07 537C261.987 536.979 261.903 536.958 261.82 536.937C233.159 535.022 203.237 533.877 176.488 522.267C172.245 520.425 166.758 517.71 164.113 513.651C162.546 511.2 162.629 505.457 162.821 502.507Z"/></svg>