<?xml version="1.0" encoding="utf-8" ?><svg xmlns="http://www.w3.org/2000/svg" xmlns:xlink="http://www.w3.org/1999/xlink" width="537" height="537" viewBox="0 0 537 537"><clipPath id="cl_3"><rect x="-0.00022888184" y="1.5258789e-05" width="536.80377" height="536.80383"/></clipPath><g clip-path="url(#cl_3)"><path fill="currentColor" transform="matrix(0.999635 0 0 0.999635 -156.943 -157.942)" d="M303.065 159.471C316.663 158.78 334.974 159.349 348.84 159.355L436.343 159.355L508.601 159.348C519.037 159.348 535.967 158.811 545.753 159.54C550.09 159.887 554.294 161.198 558.06 163.377C564.215 166.954 568.647 172.542 570.476 179.442C572.722 187.919 571.577 214.618 571.56 224.904L571.39 317.809L571.361 547.246L571.366 628.839C571.373 640.633 571.59 652.431 571.565 664.226C571.536 678.663 561.85 688.891 548.355 692.401C540.586 693.54 522.84 693.007 514.474 693.029L446.643 693.093L353.185 693.046L324.491 693.073C318.841 693.087 313.315 693.109 307.663 692.944C294.696 692.566 283.421 682.573 280.776 669.997C279.511 663.985 279.899 656.411 279.884 650.173L279.842 622.721L279.74 516.856L279.761 294.402L279.767 222.532C279.764 211.302 279.652 199.96 279.679 188.752C279.692 183.498 281.716 176.526 284.634 172.142C289.181 165.312 295.107 161.243 303.065 159.471ZM432.041 314.04C459.402 310.641 478.864 285.758 475.572 258.383C472.279 231.009 447.471 211.45 420.084 214.637C392.547 217.841 372.857 242.815 376.168 270.34C379.478 297.865 404.529 317.457 432.041 314.04ZM430.809 567.755C479.661 565.037 517.095 523.288 514.487 474.43C511.879 425.572 470.215 388.044 421.351 390.542C372.331 393.047 334.657 434.874 337.273 483.888C339.889 532.902 381.801 570.481 430.809 567.755ZM475.026 640.253C480.9 637.52 479.895 630.455 475.244 629.904C465.32 628.729 454.173 629.83 444.106 629.452C422.32 629.85 399.288 628.814 377.681 629.541C375.993 630.026 374.429 630.58 373.529 632.216C372.774 633.588 372.551 635.031 373.027 636.536C373.503 638.042 374.614 639.154 376.018 639.83C378.506 641.029 464.424 640.306 475.026 640.253ZM432.032 620.744L459.605 620.768C464.516 620.767 469.593 620.947 474.458 620.426C480.603 619.767 481.239 610.826 474.255 610.373C468.582 610.006 463.023 610.088 457.345 610.066C445.537 609.983 433.728 609.99 421.92 610.085L393.046 610.157C388.13 610.167 383.2 610.083 378.297 610.354C374.874 610.543 372.684 612.118 372.766 615.696C372.841 619.012 374.885 620.516 378.057 620.65C384.474 620.922 390.93 620.787 397.355 620.768L432.032 620.744ZM377.191 590.885C375.729 591.2 374.458 591.455 373.591 592.806C372.76 594.101 372.452 595.866 372.788 597.362C373.068 598.607 373.863 599.903 375.057 600.453C379.081 602.306 462.13 601.36 473.936 601.201C479.28 600.476 481.054 595.147 477.085 591.748C476.254 591.036 473.538 590.795 472.439 590.788C447.131 590.628 421.814 590.88 396.503 590.758C390.238 590.728 383.401 590.523 377.191 590.885ZM427.041 367.473C435.14 366.842 441.212 359.791 440.634 351.687C440.055 343.584 433.044 337.466 424.937 337.992C416.755 338.522 410.569 345.612 411.152 353.791C411.736 361.969 418.866 368.109 427.041 367.473Z"/><path fill="currentColor" transform="matrix(0.999635 0 0 0.999635 -156.943 -157.942)" d="M423.077 401.754C465.844 400.241 501.75 433.662 503.303 476.428C504.855 519.193 471.467 555.13 428.703 556.722C385.883 558.316 349.889 524.874 348.335 482.053C346.781 439.232 380.255 403.269 423.077 401.754ZM432.897 542.46C467.803 538.573 492.956 507.136 489.089 472.228C485.222 437.32 453.799 412.149 418.889 415.996C383.951 419.846 358.755 451.3 362.625 486.236C366.495 521.172 397.963 546.35 432.897 542.46Z"/><path fill="currentColor" transform="matrix(0.999635 0 0 0.999635 -156.943 -157.942)" d="M420.776 426.835C449.59 424.156 475.14 445.298 477.9 474.105C480.66 502.911 459.589 528.52 430.791 531.36C401.877 534.212 376.145 513.04 373.374 484.119C370.604 455.198 391.848 429.525 420.776 426.835Z"/><path fill="currentColor" transform="matrix(0.999635 0 0 0.999635 -156.943 -157.942)" d="M423.458 225.324C445.091 224.068 463.637 240.608 464.856 262.243C466.074 283.878 449.503 302.396 427.866 303.577C406.281 304.756 387.818 288.234 386.602 266.651C385.387 245.068 401.877 226.577 423.458 225.324ZM427.892 291.101C442.661 289.858 453.58 276.808 452.201 262.052C450.822 247.295 437.674 236.495 422.93 238.009C408.377 239.504 397.746 252.447 399.107 267.014C400.468 281.58 413.313 292.329 427.892 291.101Z"/><path fill="currentColor" transform="matrix(0.999635 0 0 0.999635 -156.943 -157.942)" d="M421.649 249.403C427.103 247.926 432.93 249.494 436.907 253.508C440.884 257.521 442.398 263.363 440.871 268.803C439.344 274.243 435.011 278.443 429.526 279.801C421.173 281.868 412.713 276.827 410.554 268.498C408.396 260.168 413.344 251.653 421.649 249.403Z"/><path fill="currentColor" transform="matrix(0.999635 0 0 0.999635 -156.943 -157.942)" d="M424.091 349.187C425.348 348.563 426.842 348.662 428.005 349.447C429.168 350.232 429.819 351.581 429.71 352.979C429.601 354.378 428.749 355.61 427.479 356.206C425.546 357.112 423.243 356.294 422.315 354.371C421.387 352.448 422.179 350.136 424.091 349.187Z"/></g></svg>
