<?xml version="1.0" encoding="utf-8" ?><svg xmlns="http://www.w3.org/2000/svg" xmlns:xlink="http://www.w3.org/1999/xlink" width="537" height="538" viewBox="0 0 537 538"><clipPath id="cl_3"><rect x="-0.00039672852" y="-3.0517578e-05" width="536.64575" height="537.66992"/></clipPath><g clip-path="url(#cl_3)"><path fill="currentColor" transform="matrix(1.02413 0 0 1.02413 -256.034 -256.033)" d="M423.95 273.772C434.409 273.047 446.281 273.899 456.905 273.943L523.578 273.988C534.699 274.022 545.82 273.987 556.941 273.885C568.934 273.661 587.5 270.845 596.283 279.86C601.319 285.03 599.928 302.116 599.904 309.559L599.804 345.122L600.111 464.587L560.025 464.436C556.74 461.765 552.078 456.46 548.613 453.284C537.307 442.927 522.827 436.704 507.532 435.63C487.933 434.054 468.513 440.343 453.559 453.109C439.236 465.51 430.444 483.106 429.126 502.005C427.753 520.544 433.834 538.864 446.023 552.9C458.738 567.496 476.827 576.314 496.157 577.341C514.813 578.472 532.766 572.292 547.028 560.297C551.461 556.569 555.527 552.451 559.86 548.589C570.879 548.149 582.859 548.428 593.977 548.492C596.08 548.481 597.938 548.327 600.021 548.163L600.018 668.645L600.059 708.918C600.059 716.569 600.202 724.536 599.792 732.184C599.543 736.844 599.034 741.32 596.308 745.206C593.106 749.769 589.208 749.686 584.158 750.421C572.166 751.942 559.98 751.151 547.908 751.083L494.572 751.022L445.422 751.008C438.777 751.005 424.233 751.309 418.198 750.49C415.154 750.07 412.29 748.799 409.937 746.822C406.433 743.933 405.37 740.391 404.982 735.985C403.995 724.753 404.259 713.578 404.347 702.337L404.392 667.947L404.436 537.47L404.485 371.52L404.474 319.428C404.449 308.947 402.114 287.965 408.894 279.202C412.237 274.881 418.675 273.981 423.95 273.772ZM496.373 614.699C474.278 617.926 458.988 638.461 462.229 660.553C465.471 682.646 486.017 697.923 508.107 694.666C530.177 691.412 545.435 670.891 542.196 648.819C538.958 626.748 518.447 611.475 496.373 614.699ZM506.621 313.199C523.731 314.636 534.285 319.014 547.559 329.811C551.631 333.123 560.25 326.459 552.517 320.093C538.145 308.26 519.831 302.653 501.375 302.476C500.753 302.472 499.31 302.594 498.768 302.712C482.038 304.029 464.189 309.562 451.598 321.078C448.439 323.967 448.924 331.159 454.008 330.345C459.588 329.451 464.195 324.722 468.802 321.778C478.062 315.415 495.654 311.88 506.621 313.199ZM507.23 334.694L507.91 334.755C511.245 335.089 514.061 335.787 517.639 336.843C524.169 338.769 531.255 347.646 538.693 346.375C541.245 345.939 541.622 341.287 539.9 339.044C531.582 328.213 511.187 322.648 498.19 324.181C486.546 325.755 473.34 329.137 465.186 338.694C463.401 340.786 463.535 343.194 465.342 345.242C473.221 348.414 489.418 330.565 507.23 334.694ZM507.472 356.774C511.323 358.364 525.908 366.117 527.485 359.666C525.344 348.929 507.776 344.573 498.309 345.61C492.755 346.688 477.699 350.34 477.932 358.26C477.958 359.168 478.926 360.645 479.871 360.955C488.993 363.153 497.235 354.05 507.472 356.774ZM503.234 388.118C507.031 387.768 510.34 385.389 511.88 381.901C513.42 378.412 512.949 374.364 510.649 371.323C508.349 368.281 504.581 366.726 500.806 367.258C495.159 368.054 491.179 373.209 491.839 378.873C492.498 384.537 497.556 388.64 503.234 388.118Z"/><path fill="currentColor" transform="matrix(1.02413 0 0 1.02413 -256.034 -256.033)" d="M497.889 625.162C514.185 622.778 529.339 634.026 531.776 650.315C534.213 666.603 523.015 681.794 506.734 684.284C490.379 686.785 475.103 675.524 472.655 659.16C470.207 642.797 481.518 627.558 497.889 625.162ZM496.816 669.541C499.7 672.678 500.08 673.2 504.203 673.854C510.128 666.696 507.265 647.925 507.405 639.058C504.901 637.27 504.169 636.761 501.231 635.84C500.238 636.909 498.399 638.848 497.964 640.195C495.497 647.847 496.539 661.229 496.806 669.287L496.816 669.541Z"/><path fill="currentColor" transform="matrix(1.02413 0 0 1.02413 -256.034 -256.033)" d="M421.532 249.734C432.668 249.307 444.319 249.896 455.5 249.942L525.609 249.964L565.259 249.706C581.275 249.604 600.641 247.657 612.958 259.918C618.212 265.139 621.752 271.836 623.107 279.118C624.927 289.289 624.267 298.873 624.114 309.067C624.018 318.765 623.978 328.463 623.994 338.161L624.109 464.572C619.728 464.569 615.348 464.477 610.991 464.919L610.583 347.161C610.603 332.518 611.222 317.855 611.031 303.196C610.881 291.712 611.297 279.588 602.606 270.81C596.017 264.155 587.534 262.779 578.576 262.57C567.188 262.326 555.888 262.699 544.541 262.742L480.218 262.686C468.584 262.686 456.95 262.627 445.316 262.51C432.458 262.384 412.793 260.448 402.572 270.014C395.21 276.904 393.549 285.02 393.536 294.894C393.494 327.512 393.568 360.158 393.586 392.79L393.574 581.223L393.533 683.38L393.5 716.372C393.513 728.427 392.069 741.838 399.805 751.71C405.086 758.449 413.746 761.592 422 761.825C434.359 762.173 446.91 762.004 459.25 761.969L543.649 762.023C556.541 762.025 569.496 762.108 582.385 761.677C584.948 761.491 587.554 761.329 590.065 760.739C612.819 755.386 611.109 730.858 611.051 713.714L610.637 674.744L610.964 548.489C615.158 548.649 619.722 548.462 623.946 548.372L623.976 548.799C624.832 561.945 624.537 576.866 624.534 590.136L624.024 668.782C623.983 683.939 624.413 699.063 624.458 714.181C624.481 722.286 624.473 737.249 623.148 745.292C622.091 751.876 619.186 758.024 614.77 763.021C600.096 779.452 573.461 775.004 553.307 774.983L484.021 774.931C472.454 774.924 460.811 774.852 449.253 774.956C437.192 775.192 425.458 775.967 413.49 774.343C391.03 771.295 380.487 756.848 380.452 734.681C380.435 723.953 380.432 712.514 380.453 701.627L380.509 641.093L380.59 453.53L380.514 340.935L380.422 305.384C380.386 290.194 378.704 272.803 390.197 260.909C398.889 251.914 409.507 250.011 421.532 249.734Z"/><path fill="currentColor" transform="matrix(1.02413 0 0 1.02413 -256.034 -256.033)" d="M731.211 474.769C749.538 473.212 759.147 478.797 759.838 497.785C761.234 536.117 756.245 537.615 720.992 537.584L689.572 537.575L582.25 537.559C574.425 537.536 562.457 537.193 554.984 537.912L554.963 475.041C563.381 475.63 573.978 475.221 582.586 475.175L630.049 474.97L694.952 475.005C706.435 475.005 719.859 475.287 731.211 474.769Z"/><path fill="currentColor" transform="matrix(1.02413 0 0 1.02413 -256.034 -256.033)" d="M507.708 475.259C519.191 474.87 532.295 475.337 543.964 475.433C544.758 480.5 544.512 492.211 544.513 497.629L544.503 537.607C531.143 537.664 518.006 537.525 504.625 537.765C501.668 537.644 498.905 537.527 495.848 537.2C463.632 533.75 458.473 490.811 486.675 477.887C492.87 475.048 500.724 475.418 507.708 475.259Z"/><path fill="currentColor" transform="matrix(1.02413 0 0 1.02413 -256.034 -256.033)" d="M503.85 446.229C519.113 446.001 534.66 454.244 545.137 464.918C536.135 463.949 525.163 464.624 516.01 464.425C500.045 464.077 482.853 463.855 470.532 475.686C462.287 483.622 457.586 494.545 457.493 505.988C457.352 517.332 461.097 527.934 469.116 536.075C481.903 549.055 497.201 548.58 514.057 548.546C521.913 548.519 529.769 548.537 537.625 548.6C539.829 548.758 542.017 548.75 544.227 548.776C533.053 559.269 520.885 565.659 505.307 566.519C488.366 567.578 471.715 561.763 459.117 550.387C447.5 539.921 440.573 525.228 439.892 509.606C439.042 493.589 444.727 477.912 455.645 466.163C469.423 451.261 484.192 447.049 503.85 446.229Z"/></g></svg>