<?xml version="1.0" encoding="utf-8" ?><svg xmlns="http://www.w3.org/2000/svg" xmlns:xlink="http://www.w3.org/1999/xlink" width="594" height="594" viewBox="0 0 594 594"><path fill="currentColor" transform="scale(1.04705 1.04705)" d="M221.548 124.665C224.289 124.902 228.558 125.757 231.36 126.254L248.376 129.331C265.349 132.233 282.304 135.239 299.24 138.351L446.531 164.343C454.879 165.878 522.993 177.019 524.958 178.265C526.862 179.472 527.779 189.194 528.14 191.592C526.794 194.305 522.047 200.935 520.188 203.663L503.789 227.672L450.773 305.204L381.487 406.924L362.544 434.796C359.994 438.549 354.354 447.261 351.553 450.201C346.996 449.032 342.75 447.763 338.244 446.393C330.571 443.816 320.889 441.28 312.989 438.973L262.471 424.233L111.449 379.91L59.7392 364.827C53.3661 362.98 40.4262 359.752 34.7664 357.556C32.6916 355.019 29.1324 348.895 27.5721 345.954C29.2331 343.464 32.7917 339.59 34.8189 337.295L46.4233 324.195L79.5052 286.538L174.451 177.894C179.458 172.158 219.188 125.912 221.548 124.665Z"/><path fill="#FDFDFD" transform="scale(1.04705 1.04705)" d="M222.512 128.612C224.057 128.65 227.896 129.395 229.612 129.693L243.254 132.127L284.882 139.52L447.847 168.413L496.767 176.943C503.276 178.096 515.116 180.732 521.376 181.168C517.055 187.228 512.387 194.593 508.083 200.889L474.592 249.84L395.034 365.522L359.77 416.901C355.717 422.736 350.758 430.585 346.621 436.041C342.929 434.867 339.216 433.76 335.484 432.719C325.215 429.898 314.448 426.598 304.199 423.608L258.812 410.536L127.718 372.925L66.3419 355.252C55.9497 352.266 43.2874 348.264 32.9141 345.778L171.571 187.088C188.32 167.92 206.155 148.041 222.512 128.612Z"/><path fill="currentColor" transform="scale(1.04705 1.04705)" d="M224.41 145.664C227.543 146.007 232.209 146.976 235.398 147.554L258.162 151.796L332.546 165.764L437.29 185.289L472.945 191.815C478.51 192.842 484.82 193.855 490.295 195.052C491.45 197.755 492.868 202.002 493.959 204.881C491.141 209.598 487.108 215.036 483.954 219.629L463.202 249.635L404.016 335.242L365.353 391.119C361.801 396.316 358.22 401.493 354.612 406.651C352.848 409.18 351.16 412.092 349.027 414.308C346.648 416.78 334.263 420.734 330.515 422.214L327.454 421.331C311.812 416.613 295.894 412.204 280.184 407.638L157.254 372.021C133.245 364.956 109.191 358.048 85.0917 351.298C79.0608 349.582 73.0418 347.825 67.0352 346.026C63.766 345.059 59.8026 343.773 56.5395 343.067C56.5191 338.824 56.4141 334.583 56.2245 330.344C58.837 327.026 62.4424 323.18 65.2495 319.903L87.1537 294.535L155.426 215.43L193.327 171.338L204.747 157.889C212.63 148.637 212.409 149.214 224.41 145.664Z"/><path fill="#FDFDFD" transform="scale(1.04705 1.04705)" d="M241.686 153.577C242.617 153.723 243.138 153.711 243.532 154.556C242.583 156.4 235.169 164.805 233.407 166.875C228.423 172.729 223.327 179.172 218.168 184.792C228.02 187.138 238.921 189.215 248.918 191.33C250.923 189.249 253.557 185.735 255.488 183.388L268.371 167.668C269.792 165.911 274.398 158.464 276.745 160.582C276.711 162.444 256.396 185.663 254.008 189.069C253.651 189.578 252.121 191.225 251.563 191.802C261.399 194.117 272.573 196.258 282.524 198.281C285.206 194.556 306.518 167.623 308.462 166.388C309.53 166.379 309.075 166.228 309.908 166.738L310.012 167.322C309.485 169.204 307.845 170.762 306.604 172.234C299.319 180.877 292.575 190.185 285.181 198.717C293.69 200.684 302.224 202.538 310.783 204.279C314.288 201.581 316.498 201.153 320.721 200.779C322.721 198.621 325.055 195.324 326.906 192.886L336.978 179.695C337.996 178.368 341.263 173.959 342.398 173.066C343.294 172.874 343.23 172.892 344.093 173.222L344.357 173.833C344.033 175.696 334.642 186.924 332.733 189.562C330.399 192.789 326.081 198.74 323.39 201.473C325.66 203.646 325.907 204.195 325.704 207.423C333.833 209.674 343.466 211.26 351.888 213.229C355.435 208.998 376.035 180.691 378.017 179.579C379.055 179.553 378.604 179.421 379.445 179.893L379.587 180.603C378.839 183.272 357.84 209.934 354.849 213.813C358.811 214.424 363.894 215.658 367.92 216.516C374.987 217.966 382.037 219.499 389.068 221.116C395.257 213.766 401.325 204.345 407.29 196.664C409.606 193.682 411.829 190.225 414.34 187.342C414.961 186.629 415.147 186.701 415.903 186.665C416.704 187.207 416.45 186.843 416.665 187.81C416.08 190.186 410.425 197.116 408.634 199.538C403.177 206.938 397.679 214.307 392.141 221.645C400.135 223.373 408.141 225.046 416.157 226.666C419.776 227.425 425.385 228.449 428.783 229.551C431.027 226.111 433.596 222.582 436.012 219.24C441.887 211.115 447.564 202.814 453.594 194.81C454.079 194.166 454.542 194.242 455.227 194.262C456.479 195.095 455.914 196.331 455.122 197.401C447.197 208.115 439.822 219.313 431.755 229.919C436.561 231.191 461.716 235.623 464.238 237.223C464.237 238.087 463.951 238.347 463.464 239.066C462.873 239.327 462.251 239.431 461.613 239.278C451.202 236.777 440.438 235.136 430.068 232.512L383.534 297.561C393.534 299.549 407.169 303.274 417.19 305.828L415.366 308.413C404.521 305.943 392.326 302.978 381.668 300.036C364.855 324.549 346.76 348.614 329.625 372.933C340.112 376.532 352.563 378.999 363.325 382.578C362.759 383.604 362.161 384.386 361.479 385.331C350.81 381.946 338.313 378.768 327.387 375.759C326.413 377.487 324.493 380.1 323.32 381.803C317.596 389.92 311.674 397.901 306.005 406.057C305.092 407.37 303.928 409.528 302.046 409.29C301.559 408.748 301.633 409.028 301.515 408.386C301.411 407.816 301.639 406.858 301.973 406.382C304.315 403.04 306.777 399.628 309.147 396.319L324.487 374.942L299.589 367.969C296.392 367.064 289.995 365.423 287.238 364.284C281.361 371.668 275.665 380.384 269.836 387.927C268.542 389.6 264.261 395.79 262.798 396.914C261.636 397.115 261.328 397.008 260.86 396.023C260.974 395.199 261.192 394.559 261.691 393.868C268.986 383.755 277.025 373.789 284.011 363.484C279.791 362.558 274.256 360.839 270.027 359.648C262.966 357.683 255.92 355.666 248.888 353.6L233.052 374.61C230.584 377.875 227.401 382.345 224.52 385.328C224.062 385.801 223.623 385.703 223.118 385.62C222.41 384.859 222.169 384.122 222.888 383.165C225.115 380.202 227.404 377.288 229.641 374.327C235.027 367.133 240.479 359.988 245.996 352.893C237.873 350.133 226.897 348.194 219.179 345.251C215.413 348.197 213.519 348.614 208.93 349.053C205.545 352.785 189.655 374.627 187.401 375.43C186.449 375.248 186.819 375.487 186.263 374.677C186.225 374.09 186.212 373.363 186.579 372.883C188.325 370.603 190.276 368.157 192.03 365.899C196.728 359.899 201.384 353.866 205.996 347.8C203.799 345.205 203.991 344.37 203.977 340.971C201.436 339.959 196.676 338.744 193.949 337.98L177.431 333.301C172.898 340.197 166.279 346.916 161.379 353.653C158.522 357.155 155.844 360.843 152.782 364.171C152.39 364.598 150.978 364.258 150.545 363.756C150.941 361.442 171.884 336.203 174.811 332.433C171.445 331.772 167.055 330.453 163.677 329.518L143.503 323.793C136.457 333.813 127.02 343.689 119.347 353.337C118.602 354.273 117.934 354.055 116.89 354.026L116.61 353.695C116.749 352.905 117.085 352.225 117.601 351.604C125.425 342.177 133.081 332.543 140.952 323.162C130.71 320.007 119.921 317.379 109.524 314.252L93.1488 333.896C91.4323 335.954 85.596 343.176 83.9476 344.38C82.914 344.525 83.3892 344.596 82.4623 344.217L82.2702 343.614C82.7341 341.768 88.8538 335.052 90.5625 333.009C95.942 326.508 101.374 320.05 106.859 313.637C104.585 313.234 100.636 312.046 98.2739 311.397L81.7215 306.774L83.4642 304.249C91.3652 306.689 100.717 309.007 108.78 311.244C114.375 305.17 121.296 296.533 126.721 290.059L162.835 246.961L146.527 243.184C144.571 242.71 140.848 241.907 139.184 241.259L139.02 240.695C140.687 237.604 145.731 240.046 148.608 240.731C154.029 241.979 159.439 243.271 164.839 244.606L213.607 186.687C205.63 185.099 197.71 183.275 189.716 181.768C190.285 180.902 190.579 180.503 191.247 179.712C192.83 179.175 212.621 183.779 215.533 184.417C223.382 175.071 233.472 162.346 241.686 153.577Z"/><path fill="currentColor" transform="scale(1.04705 1.04705)" d="M341.504 290.287C353.495 293.075 366.815 297.008 378.692 299.403C374.019 305.576 369.227 312.546 364.681 318.898L341.135 351.686C336.837 357.678 330.815 366.72 326.33 372.169C314.976 368.99 300.18 364.345 288.901 361.751C292.971 356.739 297.122 350.893 300.976 345.676L318.723 321.667L332.006 303.556C335.03 299.462 338.849 294.527 341.504 290.287Z"/><path fill="currentColor" transform="scale(1.04705 1.04705)" d="M303.76 281.158C306.702 281.613 311.433 283.049 314.443 283.759C322.409 285.639 330.7 288.035 338.716 289.602L303.245 337.683C297.63 345.27 291.725 353.596 285.924 360.947C283.089 359.848 279.399 359.025 276.414 358.132C268.169 355.665 258.982 353.693 250.908 350.807C256.296 344.475 263.619 334.192 268.845 327.353C280.577 312.025 292.215 296.627 303.76 281.158Z"/><path fill="currentColor" transform="scale(1.04705 1.04705)" d="M390.263 224.114C394.086 224.75 398.796 225.915 402.656 226.743L427.085 232.044C425.15 234.273 422.837 237.69 421.077 240.154L411.717 253.257L380.394 296.89C372.358 294.179 362.673 292.808 354.463 290.393C351.103 289.405 346.727 288.369 343.318 287.752C345.381 285.616 348.045 281.704 349.837 279.235L358.834 267.001C369.152 253.015 380.346 238.283 390.263 224.114Z"/><path fill="currentColor" transform="scale(1.04705 1.04705)" d="M274.458 274.056C275.595 274.156 281.459 275.702 282.805 276.032C288.838 277.529 294.884 278.973 300.942 280.363C286.986 298.814 263.163 330.174 248.298 349.637C247.902 350.157 246.974 349.838 246.335 349.698C238.211 347.423 229.043 344.655 220.931 342.739C221.887 339.586 221.474 338.049 219.304 335.579C220.887 333.433 222.552 331.24 224.211 329.151C237.574 312.323 250.315 294.665 263.841 277.996C268.622 277.882 270.721 276.919 274.458 274.056Z"/><path fill="currentColor" transform="scale(1.04705 1.04705)" d="M233.205 263.883C240.472 266.181 251.404 268.461 259.124 270.509L259.103 270.881C258.953 273.88 259.098 274.548 261.064 276.74C259.345 279.269 257.066 282.177 255.132 284.563C241.988 300.776 229.774 318.155 216.629 334.315C212.595 334.588 210.001 335.441 206.695 337.747L206.571 337.86C204.989 338.253 183.177 331.717 179.496 330.783C181.708 327.898 184.571 324.624 186.9 321.751L202.193 302.699C212.415 289.93 222.81 276.407 233.205 263.883Z"/><path fill="currentColor" transform="scale(1.04705 1.04705)" d="M353.165 216.136L375.555 221.068C379.382 221.891 383.538 222.92 387.378 223.417C376.635 238.179 365.808 252.881 354.899 267.521L345.643 280.177C344.228 282.126 341.961 285.483 340.455 287.114C336.853 285.983 331.451 284.843 327.664 283.926L305.695 278.582C321.958 258.208 336.937 236.409 353.165 216.136Z"/><path fill="currentColor" transform="scale(1.04705 1.04705)" d="M199.306 255.838C209.499 257.857 220.082 261.305 230.311 263.182L176.65 330.141C173.867 329.058 169.653 328.067 166.68 327.205C159.757 325.198 152.687 323.445 145.808 321.287C147.4 319.068 150.368 315.655 152.152 313.482L165.116 297.806C176.603 283.891 188 269.902 199.306 255.838Z"/><path fill="currentColor" transform="scale(1.04705 1.04705)" d="M165.37 247.688C166.64 247.838 168.442 248.276 169.705 248.604C178.629 250.928 187.763 252.808 196.645 255.248C191.503 260.737 183.781 270.946 178.759 277.087L142.962 320.661C133.253 317.5 121.551 314.759 111.465 311.823C113.596 309.823 116.388 306.283 118.348 303.937L128.705 291.623C141.001 277.04 153.223 262.395 165.37 247.688Z"/><path fill="currentColor" transform="scale(1.04705 1.04705)" d="M324.14 210.126C330.412 211.692 336.92 212.796 343.228 214.249C345.478 214.767 347.926 215.3 350.208 215.536C347.35 219.561 343.737 224.113 340.716 228.111L318.396 257.472C313.243 264.197 307.766 271.126 302.864 277.993C302.249 277.776 301.632 277.566 301.013 277.36C292.874 275.604 284.201 273.352 276.077 271.345C276.091 270.728 276.092 270.112 276.081 269.495C276.03 267.305 275.666 266.767 274.146 265.324C277.754 259.496 284.37 251.968 288.672 246.389C297.107 235.45 305.487 224.363 314.045 213.528C318.305 213.891 320.814 212.32 324.14 210.126Z"/><path fill="currentColor" transform="scale(1.04705 1.04705)" d="M283.339 201.186C286.012 202.054 290.335 202.824 293.19 203.419L308.949 206.765C309.041 208.015 309.221 209.399 309.356 210.658C309.86 211.316 310.625 212.033 311.222 212.629C302.699 223.813 294.109 234.945 285.451 246.023C281.732 250.811 275.209 259.834 271.365 264.027C267.685 264.34 265.819 264.806 262.61 266.686C262.22 266.955 261.258 267.691 260.818 267.617C252.244 266.175 243.515 263.189 235.04 261.513C240.641 254.846 246.2 247.669 251.686 240.85L283.339 201.186Z"/><path fill="currentColor" transform="scale(1.04705 1.04705)" d="M249.788 194.229C251.03 194.294 259.114 196.117 261.036 196.567C267.383 198.052 274.172 199.14 280.428 200.662C278.844 202.985 275.851 206.478 274.029 208.777L259.682 226.719L241.658 249.117C238.615 252.898 235.322 257.247 232.175 260.84C224.889 258.856 217.36 257.351 210.043 255.44C207.198 254.696 204.208 253.904 201.323 253.394C203.205 251.2 205.109 248.913 206.916 246.653C220.955 229.098 236.066 211.996 249.788 194.229Z"/><path fill="currentColor" transform="scale(1.04705 1.04705)" d="M216.313 187.139L235.014 191.175C238.519 191.923 243.773 193.161 247.222 193.427C243.305 198.861 236.642 206.39 232.302 211.769C221.227 225.496 209.709 238.988 198.673 252.751C188.76 249.984 177.188 248.032 167.579 245.11C177.361 233.661 187.079 222.158 196.734 210.602C203.002 203.107 209.923 194.374 216.313 187.139Z"/><path fill="currentColor" transform="scale(1.04705 1.04705)" d="M467.135 183.239C478.691 185.515 491.676 187.384 502.909 189.934C502.354 190.875 501.661 191.911 501.069 192.845C490.248 190.683 475.816 187.818 465.02 186.256L467.135 183.239Z"/><path fill="currentColor" transform="scale(1.04705 1.04705)" d="M470.975 177.888C478.637 179.334 486.312 180.707 494.001 182.006C497.425 182.601 503.199 183.461 506.409 184.387C505.934 185.595 505.65 185.815 504.783 186.83C504.63 186.919 504.478 187.009 504.325 187.098C494.705 185.826 477.821 181.93 468.888 180.857C469.595 179.913 470.297 178.862 470.975 177.888Z"/><path fill="currentColor" transform="scale(1.04705 1.04705)" d="M428.27 176.179C439.993 177.871 452.296 180.891 464.117 182.57L462.048 185.487C460.049 185.442 450.693 183.539 448.008 182.998C441.004 181.587 433.264 180.434 426.386 178.794C427.224 177.812 427.566 177.277 428.27 176.179Z"/><path fill="currentColor" transform="scale(1.04705 1.04705)" d="M432.182 171.014C434.999 171.161 439.306 172.21 442.232 172.674C450.674 174.013 459.561 176.153 468.014 177.132L466.024 180.087C464.913 180.114 457.29 178.608 455.816 178.337C447.286 176.718 438.741 175.18 430.182 173.723L432.182 171.014Z"/><path fill="currentColor" transform="scale(1.04705 1.04705)" d="M391.132 169.11C393.33 170.006 401.157 171.167 404.021 171.673L425.275 175.479C424.693 176.493 424.038 177.401 423.373 178.362C418.313 177.273 412.707 176.458 407.574 175.504C401.381 174.352 395.052 173.065 388.858 172.024C389.6 171.04 390.358 170.069 391.132 169.11Z"/><path fill="currentColor" transform="scale(1.04705 1.04705)" d="M395.001 164.132C401.642 165.386 408.291 166.596 414.949 167.76C419.096 168.523 425.135 169.84 429.193 170.206C428.54 171.218 427.836 172.21 427.149 173.201C416.983 170.49 403.593 169.397 392.981 166.74C393.629 165.807 394.289 165.009 395.001 164.132Z"/><path fill="currentColor" transform="scale(1.04705 1.04705)" d="M355.092 162.48C357.883 163.276 363.715 164.246 366.733 164.807L388.146 168.71C387.513 169.579 386.669 170.568 385.981 171.419C374.938 169.615 363.946 167.053 352.856 165.467L355.092 162.48Z"/><path fill="currentColor" transform="scale(1.04705 1.04705)" d="M359.007 157.555C362.852 158.16 389.807 162.743 391.61 163.635C391.403 164.634 390.649 165.398 389.997 166.218C384.19 165.438 377.718 163.983 371.862 162.945C367.319 162.139 361.104 161.237 356.818 160.024C357.559 159.231 358.29 158.374 359.007 157.555Z"/><path fill="currentColor" transform="scale(1.04705 1.04705)" d="M320.188 156.039C329.682 158.313 342.506 160.286 352.279 162.029L349.929 164.752C345.243 163.673 339.276 162.785 334.42 161.86C329.179 160.86 322.929 159.555 317.71 158.822L320.188 156.039Z"/><path fill="currentColor" transform="scale(1.04705 1.04705)" d="M324.17 151.144C334.912 153.14 345.569 155.32 356.376 156.977C355.58 157.916 354.751 158.825 353.889 159.703C351.011 158.956 347.691 158.562 344.74 157.987C337.282 156.534 329.258 155.51 321.895 153.746L324.17 151.144Z"/><path fill="currentColor" transform="scale(1.04705 1.04705)" d="M285.923 150.006C289.51 150.374 293.935 151.305 297.552 151.976C304.08 153.212 310.615 154.41 317.157 155.569C316.455 156.587 315.979 157.095 315.139 158.018C311.808 157.77 307.433 156.814 304.061 156.198C297.39 154.941 290.707 153.753 284.012 152.635C284.69 151.499 285.074 151.042 285.923 150.006Z"/><path fill="currentColor" transform="scale(1.04705 1.04705)" d="M290.151 145.253C292.346 145.308 296.416 146.265 298.704 146.609C305.77 147.671 314.342 149.928 321.295 150.433C320.671 151.383 320.038 152.326 319.395 153.263C309.214 151.821 297.915 148.923 287.987 147.71L290.151 145.253Z"/><path fill="currentColor" transform="scale(1.04705 1.04705)" d="M253.186 143.915C263.15 145.535 273.23 147.614 283.231 149.291C282.497 150.123 281.773 151.053 281.074 151.919C274.98 150.902 268.903 149.793 262.844 148.591C259.276 147.901 254.541 146.85 251.018 146.62C251.639 145.704 252.468 144.771 253.186 143.915Z"/><path fill="currentColor" transform="scale(1.04705 1.04705)" d="M257.117 139.178C258.614 139.194 264.218 140.376 266.01 140.676C272.995 141.846 280.154 143.444 287.171 144.357L285.573 147.08C283.698 146.976 277.848 145.766 275.617 145.36C268.787 144.072 261.943 142.862 255.085 141.729C255.733 140.863 256.436 140.019 257.117 139.178Z"/><path fill="currentColor" transform="scale(1.04705 1.04705)" d="M221.82 138.119C223.638 138.182 248.695 143.018 249.767 143.521C249.535 144.458 248.925 144.944 248.253 145.669C246.432 146.015 223.645 141.34 219.991 140.763C220.632 139.642 221.017 139.138 221.82 138.119Z"/><path fill="currentColor" transform="scale(1.04705 1.04705)" d="M226.178 133.42C228.382 133.616 253.527 138.419 253.938 138.71C253.795 139.685 252.993 140.408 252.321 141.186C243.292 139.401 232.709 137.773 223.966 135.75L226.178 133.42Z"/></svg>