<?xml version="1.0" encoding="utf-8" ?><svg xmlns="http://www.w3.org/2000/svg" xmlns:xlink="http://www.w3.org/1999/xlink" width="732" height="732" viewBox="0 0 732 732"><path fill="currentColor" transform="scale(0.71498 0.71498)" d="M440.529 449.701C467.123 464.555 554.474 461.402 583.3 450.243C583.868 495.758 583.443 541.859 583.472 587.444L583.511 641.317C583.518 650.331 583.559 659.427 583.512 668.445C583.5 670.783 583.506 670.92 582.267 672.317C579.331 673.567 575.472 675.093 572.495 676.036C540.835 686.065 469.307 686.494 440.356 671.477C439.715 662.244 440.131 646.605 440.122 637.011L440.09 571.553L440.101 495.641C440.104 481.028 439.729 464.161 440.529 449.701Z"/><path fill="currentColor" transform="scale(0.71498 0.71498)" d="M440.523 676.739C466.983 689.048 523.877 689.661 552.86 684.922C563.897 683.118 572.874 680.127 583.391 676.974C583.403 696.601 583.444 716.314 583.454 735.943C583.455 738.595 583.526 740.163 581.622 741.944C565.903 752.213 534.433 753.992 515.719 754.273C494.227 754.596 470.158 752.883 449.827 745.481C447.157 744.509 443.656 743.471 441.653 741.348C439.426 738.989 440.249 683.571 440.523 676.739Z"/><path fill="#FEFEFF" transform="scale(0.71498 0.71498)" d="M447.181 696.268C448.118 696.288 450.858 696.267 450.941 697.439C451.411 704.095 452.719 730.87 450.661 735.652C449.12 735.562 448.889 735.677 447.547 734.887C446.149 732.536 446.401 700 447.181 696.268Z"/><path fill="#FEFEFF" transform="scale(0.71498 0.71498)" d="M509.972 704.298C512.272 704.461 512.566 704.231 513.854 705.53C514.545 711.441 514.396 738.655 513.909 744.239C512.219 744.146 511.887 744.286 510.46 743.381C509.039 740.449 509.339 708.303 509.972 704.298Z"/><path fill="#FEFEFF" transform="scale(0.71498 0.71498)" d="M494.773 703.959C496.306 704.164 496.249 704.126 497.632 704.798C498.997 706.994 498.663 740.337 498.021 743.756C496.361 743.722 496.381 743.762 494.816 743.261C493.408 741.597 493.163 706.513 494.773 703.959Z"/><path fill="#FEFEFF" transform="scale(0.71498 0.71498)" d="M573.088 696.24C575.093 696.328 575.606 696.169 576.801 697.327C577.445 700.949 577.637 732.464 576.588 735.3C574.36 734.911 574.495 735.285 573.03 734.029C572.173 730.501 572.288 699.765 573.088 696.24Z"/><path fill="#FEFEFF" transform="scale(0.71498 0.71498)" d="M526.016 703.929C527.893 704.157 528.662 704.163 529.719 705.415C530.198 709.763 530.251 740.384 529.543 743.715C527.361 743.565 526.956 743.776 525.726 742.107C525.241 737.7 525.011 707.168 526.016 703.929Z"/><path fill="#FEFEFF" transform="scale(0.71498 0.71498)" d="M463.16 699.775C464.407 699.971 466.806 700.45 466.772 702.042C466.642 708.244 468.188 736.041 466.086 740.031C465.229 739.945 463.119 739.714 463.049 738.676C462.591 731.886 461.149 704.717 463.16 699.775Z"/><path fill="#FEFEFF" transform="scale(0.71498 0.71498)" d="M478.574 702.719C480.486 702.882 481.259 702.616 482.377 704.079C482.766 708.63 482.955 739.367 481.965 742.667C480.42 742.609 480.401 742.662 478.961 742.168C477.513 739.798 477.853 706.751 478.574 702.719Z"/><path fill="#FEFEFF" transform="scale(0.71498 0.71498)" d="M557.677 699.775C559.718 700.09 560.214 700.169 561.232 701.53C561.704 705.761 561.947 736.488 560.93 739.666C558.815 739.369 558.495 739.522 557.443 738.178C556.687 733.911 556.561 703.146 557.677 699.775Z"/><path fill="#FEFEFF" transform="scale(0.71498 0.71498)" d="M541.647 702.39C543.338 702.554 543.577 702.445 545.044 703.337C546.265 706.135 545.804 737.481 545.491 742.271C543.898 742.144 543.746 742.129 542.217 741.682C540.714 739.501 541.067 706.526 541.647 702.39Z"/><path fill="currentColor" transform="scale(0.71498 0.71498)" d="M435.996 731.202C436.667 732.185 436.521 739.896 436.544 741.604C447.572 757.04 500.109 759.124 518.359 758.845C527.141 758.628 535.904 757.927 544.609 756.746C557.281 755.066 579.403 751.999 587.314 741.669C587.604 738.658 587.507 734.346 587.523 731.216C635.346 737.133 684.615 761.137 606.117 779.932C553.679 792.698 488.923 790.336 435.697 782.93C426.555 781.658 366.399 770.841 377.865 752.858C385.829 740.368 420.293 734.046 435.996 731.202ZM618.798 763.795C622.853 763.426 629.873 762.755 631.008 758.008C630.073 750.569 617.725 750.377 612.005 750.677C607.655 751.431 601.087 752.022 600.568 757.498C602.324 763.845 613.383 764.525 618.798 763.795ZM413.995 763.479C435.055 758.997 418.729 748.541 403.591 750.65C399.83 751.204 393.423 752.876 392.559 757.077C394.969 764.262 407.756 763.836 413.995 763.479ZM518.124 781.471C521.849 780.855 527.577 779.986 527.825 775.5C525.23 768.965 513.793 768.516 507.777 769.148C503.675 769.585 498.857 770.32 496.071 773.672C494.514 782.109 512.904 781.79 518.124 781.471Z"/><path fill="currentColor" transform="scale(0.71498 0.71498)" d="M610.237 755.571C613.68 755.288 623.189 754.862 625.494 757.613C624.581 758.802 624.462 758.47 622.574 758.901C622.201 758.936 621.828 758.964 621.455 758.987C617.999 759.191 609.268 759.638 606.737 757.403C607.65 756.058 608.301 756.242 610.237 755.571Z"/><path fill="currentColor" transform="scale(0.71498 0.71498)" d="M402.346 755.604C405.657 755.366 415.986 754.605 418.091 757.231C417.044 758.524 416.981 758.18 414.997 758.745C411.775 759.15 401.481 759.612 399.024 757.516C399.903 756.052 400.244 756.365 402.346 755.604Z"/><path fill="currentColor" transform="scale(0.71498 0.71498)" d="M507.886 773.662C513.499 773.16 517.836 774.066 523.244 775.342C521.126 776.056 518.964 776.558 516.797 777.108C510.471 777.264 506.639 776.951 500.625 775.291C503.391 774.459 505.094 774.15 507.886 773.662Z"/><path fill="currentColor" transform="scale(0.71498 0.71498)" d="M375.427 765.794C411.714 802.109 608.938 802.818 648.447 765.74C648.463 771.039 649.041 786.425 648.25 791.019C647.492 792.142 646.644 793.24 645.666 794.179C626.943 812.133 562.332 817.147 536.799 818.226C524.864 818.731 512.854 818.576 500.908 818.498C473.83 818.321 396.467 813.224 377.908 793.573C372.999 788.375 375.239 772.948 375.427 765.794Z"/><path fill="currentColor" transform="scale(0.71498 0.71498)" d="M456.474 285.47C467.541 284.971 482.563 285.428 493.951 285.418C493.939 291.424 493.961 297.429 494.017 303.434C487.415 303.994 473.993 303.168 468.707 304.785C467.506 306.064 467.919 305.313 467.627 307.213C469.298 312.135 479.902 317.04 484.472 319.881C495.521 327.109 509.234 338.39 523.03 329.947C528.932 326.335 553.581 312.821 556.619 308.602C557.669 303.063 546.37 303.94 542.796 303.898C538.515 303.846 534.174 303.949 529.887 303.989L529.959 285.483C542.118 285.431 554.277 285.444 566.436 285.523C570.065 290.742 576.919 303.426 579.842 309.216C582.334 313.6 584.507 318.075 586.749 322.588C580.498 327.052 571.295 331.912 564.44 335.887C554.811 341.472 544.761 347.499 534.973 352.715C534.814 363.258 535.104 373.802 534.782 384.375C519.573 384.569 504.094 384.109 488.784 384.188C488.643 373.848 488.583 363.507 488.603 353.166C472.29 342.951 454.197 332.532 437.509 322.85C440.7 314.634 451.824 294.561 456.474 285.47Z"/><path fill="currentColor" transform="scale(0.71498 0.71498)" d="M481.327 404.159C493.922 404.47 506.521 404.567 519.119 404.452C523.826 404.406 543.135 403.38 545.997 405.809C547.69 410.669 546.991 431.235 546.473 436.976L540.937 438.338C519.732 441.704 498.093 441.211 477.064 436.881C477.013 429.61 475.975 413.244 477.941 406.101C478.257 404.952 480.15 404.45 481.327 404.159Z"/><path fill="currentColor" transform="scale(0.71498 0.71498)" d="M471.631 433.741L472.435 434.286L473.195 439.51C485.478 445.461 539.895 447.751 550.38 439.194C551.246 437.569 551.056 435.607 551.078 433.711C556.395 434.292 585.308 437.166 582.943 444.342C578.93 448.396 567.449 450.625 561.88 451.429C543.364 456.006 454.37 457.929 442.142 444.884C441.824 443.879 441.34 443.025 442.113 441.986C445.909 436.886 465.638 434.326 471.631 433.741Z"/><path fill="currentColor" transform="scale(0.71498 0.71498)" d="M498.592 268.451C507.552 268.54 516.513 268.524 525.473 268.402L525.609 306.335C525.621 311.361 525.737 317.404 525.394 322.468C525.303 323.812 524.211 324.182 523.036 324.972C513.661 329.517 507.52 328.98 498.704 323.653C498.01 306.671 498.57 285.681 498.592 268.451Z"/><path fill="currentColor" transform="scale(0.71498 0.71498)" d="M479.182 822.187C487.378 823.03 502.084 822.944 510.475 822.961C520.225 822.981 534.975 823.049 544.473 822.088C544.633 828.246 544.518 834.869 544.516 841.062C522.704 840.881 500.911 841.434 479.066 841.351C478.98 835.294 478.913 828.189 479.182 822.187Z"/><path fill="currentColor" transform="scale(0.71498 0.71498)" d="M437.546 269.338C442.278 270.174 451.895 274.553 454.407 278.718C454.386 280.659 432.104 324.142 429.628 326.659C425.873 326.377 413.658 320.403 412.479 316.969C413.628 310.886 431.225 279.67 434.726 272.238C435.187 271.26 436.627 270.024 437.546 269.338Z"/><path fill="currentColor" transform="scale(0.71498 0.71498)" d="M584.003 269.464C587.672 269.192 589.662 272.451 590.819 275.398C593.255 281.598 612.2 313.488 610.929 317.631C608.361 321.392 601.216 324.284 596.887 326.562C595.831 326.612 595.585 326.507 594.526 326.348C591.824 324.415 568.857 280.412 569.83 277.237C572.623 274.108 579.928 271.299 584.003 269.464Z"/><path fill="currentColor" transform="scale(0.71498 0.71498)" d="M475.169 252.142C487.824 251.567 501.832 252.227 514.697 251.993C525.073 252.052 535.488 251.83 545.857 252.132C548.401 252.206 550.288 252.712 551.34 255.185C552.129 257.039 552.444 262.817 551.334 264.262L549.125 264.307C523.584 263.872 497.148 264.003 471.582 263.985C471.528 259.351 470.473 254.412 475.169 252.142Z"/><path fill="currentColor" transform="scale(0.71498 0.71498)" d="M258.58 299.991C303.926 299.478 349.513 300.379 394.88 299.952C397.211 299.93 400.045 299.736 401.719 301.412C402.073 302.922 401.971 302.845 401.372 304.311C356.02 305.498 309.867 303.669 264.469 304.455C262.731 304.485 259.591 304.56 258.254 303.509C257.806 301.654 258.004 302.088 258.58 299.991Z"/><path fill="currentColor" transform="scale(0.71498 0.71498)" d="M622.195 300.091C629.889 299.773 639.481 300.059 647.317 300.058L697.628 300.038L740.99 300.027C748.422 300.026 755.956 299.99 763.392 300.068C765.167 300.087 764.734 300.016 765.832 301.022C766.135 302.691 765.988 302.751 765.46 304.323C758.767 304.68 749.581 304.435 742.749 304.443L699.406 304.439L652.291 304.475C647.886 304.487 623.984 305.052 622.096 303.67C621.511 302.033 621.76 301.785 622.195 300.091Z"/><path fill="currentColor" transform="scale(0.71498 0.71498)" d="M298.096 212.77C302.231 214.06 410.079 273.421 411.111 274.839C412.067 276.155 411.585 277.376 411.404 278.874C409.596 278.672 408.506 278.235 406.885 277.359C382.685 264.278 358.368 250.825 334.24 237.667C328.884 234.746 300.028 219.31 297.275 216.741C296.863 214.865 297.25 214.955 298.096 212.77Z"/><path fill="currentColor" transform="scale(0.71498 0.71498)" d="M724.699 213.041C726.302 213.54 726.824 214.245 726.922 215.799C725.451 218.525 715.464 223.444 712.295 225.202C703.12 230.263 693.916 235.27 684.681 240.221C661.364 252.939 637.499 266.488 613.898 278.575C612.337 278.048 612.163 277.347 612.098 275.951C613.635 272.704 624.945 267.317 628.624 265.321L659.527 248.675L699.331 226.812C707.137 222.498 716.775 216.794 724.699 213.041Z"/><path fill="currentColor" transform="scale(0.71498 0.71498)" d="M487.542 388.631C494.865 388.354 532.843 387.694 537.034 389.29C538.007 389.661 538.114 390.104 538.502 391.075C539.218 392.865 539.334 398.106 538.47 399.846L537.125 400.008C519.866 399.999 501.914 399.752 484.712 400.197C484.729 395.602 483.757 391.552 487.542 388.631Z"/><path fill="currentColor" transform="scale(0.71498 0.71498)" d="M590.984 346.368C594.775 347.715 599.87 352.807 602.662 355.759C599.728 359.543 595.201 365.347 590.448 366.354L589.744 365.441C590.955 361.608 593.136 360.063 596.05 357.26C589.599 358.446 584.155 360.162 579.58 365.345C575.984 369.413 574.213 374.777 574.679 380.186C576.216 398.305 598.972 405.233 611.105 390.043C613.412 386.887 613.491 384.669 616.875 382.887L617.867 383.337C619.754 391.316 608.301 399.809 601.716 401.865C595.284 403.883 588.302 403.145 582.433 399.827C576.843 396.607 572.76 391.298 571.082 385.069C569.325 378.452 570.326 371.405 573.857 365.539C578.805 357.458 585.613 355.312 594.057 353.118C592.494 351.896 591.719 351.319 590.375 349.889C589.948 347.954 590.081 348.561 590.984 346.368Z"/><path fill="currentColor" transform="scale(0.71498 0.71498)" d="M488.111 876.704C500.848 877.975 520.946 876.052 534.408 876.671C536.701 878.671 535.515 881.247 534.152 883.468C530.041 885.707 520.232 884.814 515.18 884.955C509.229 885.12 502.595 884.931 496.618 884.918C489.073 884.902 487.89 883.637 488.111 876.704Z"/><path fill="currentColor" transform="scale(0.71498 0.71498)" d="M488.019 845.447C501.612 845.988 522.564 844.513 535.153 845.739C535.864 847.464 535.635 849.557 535.608 851.471L488.113 851.57L488.019 845.447Z"/><path fill="currentColor" transform="scale(0.71498 0.71498)" d="M488.027 855.543C503.873 855.762 519.721 855.809 535.568 855.685C535.739 857.439 536.194 860.231 535.391 861.636L488.1 861.799L488.027 855.543Z"/><path fill="currentColor" transform="scale(0.71498 0.71498)" d="M488.305 866.228C502.071 866.849 521.685 866.517 535.516 866.228C535.578 868.223 535.509 870.28 535.473 872.28C530.929 871.887 523.51 872.075 518.688 872.08L488.034 872.213C487.991 869.789 487.963 868.61 488.305 866.228Z"/><path fill="currentColor" transform="scale(0.71498 0.71498)" d="M511.804 187.92L513.383 188.675C515.552 191.755 513.763 225.256 514.31 231.243C514.53 233.654 513.951 234.903 512.227 236.514L510.075 235.088C508.623 227.203 509.939 200.059 509.631 190.568C509.59 189.32 510.861 188.632 511.804 187.92Z"/><path fill="currentColor" transform="scale(0.71498 0.71498)" d="M539.065 268.11L550.028 268.247C550.053 271.625 550.291 278.347 549.819 281.427C546.309 281.44 542.798 281.385 539.29 281.262L539.065 268.11Z"/><path fill="currentColor" transform="scale(0.71498 0.71498)" d="M510.72 138.701C512.006 138.918 514.167 139.248 514.169 140.906C514.174 146.738 515.591 164.286 513.142 168.801C511.943 168.633 509.675 168.058 509.685 166.581C509.722 161.174 508.338 142.626 510.72 138.701Z"/><path fill="currentColor" transform="scale(0.71498 0.71498)" d="M255.706 190.218C259.314 190.447 278.391 200.796 280.42 203.695C280.781 205.193 280.434 205.731 279.928 207.189C276.371 206.525 257.824 196.252 255.191 193.791C254.718 191.895 254.905 192.418 255.706 190.218Z"/><path fill="currentColor" transform="scale(0.71498 0.71498)" d="M765.5 190.399C766.954 190.382 766.637 190.438 768.108 190.887C769.059 192.006 768.811 191.355 768.704 192.962C766.362 196.353 750.762 204.196 746.272 206.661C744.464 206.856 744.568 206.926 742.891 206.28C741.764 201.635 761.16 192.937 765.5 190.399Z"/><path fill="currentColor" transform="scale(0.71498 0.71498)" d="M213.241 167.119C216.952 167.381 234.319 176.868 238.031 180.192C238.861 180.935 238.254 182.776 238.027 183.92C234.911 183.876 215.868 173.168 213.24 171.027C212.575 169.61 212.949 168.685 213.241 167.119Z"/><path fill="currentColor" transform="scale(0.71498 0.71498)" d="M479.319 268.271C480.869 268.15 482.167 267.845 483.516 268.505C485.523 271.144 484.424 277.097 484.386 281.193L479.717 281.262C478.248 281.276 475.798 281.578 474.967 280.245C473.304 277.577 474.147 271.608 474.111 268.287L479.319 268.271Z"/><path fill="currentColor" transform="scale(0.71498 0.71498)" d="M808.587 167.404L810.142 167.925C811.299 169.274 811.066 168.526 810.975 170.208C808.947 173.069 792.683 181.265 787.967 184.092C786.526 184.115 786.558 183.987 785.256 183.287C784.721 181.91 784.811 182.609 785.228 181.134C788.348 177.51 803.538 170.077 808.587 167.404Z"/><path fill="currentColor" transform="scale(0.71498 0.71498)" d="M785.444 300.085C789.733 299.835 809.799 298.803 812.591 300.998C812.995 302.704 812.807 302.78 812.194 304.399C806.896 304.236 787.554 305.642 784.844 303.125C784.542 301.157 784.478 302.153 785.444 300.085Z"/><path fill="currentColor" transform="scale(0.71498 0.71498)" d="M211.653 300.108C215.663 299.948 236.575 299.426 238.863 300.729C239.576 302.526 239.424 301.828 238.709 304.089C234.553 304.313 214.432 305.068 211.676 303.739C210.89 301.921 211.15 302.458 211.653 300.108Z"/><path fill="currentColor" transform="scale(0.71498 0.71498)" d="M164.915 300.019C169.585 300.015 189.984 298.896 192.329 301.475C192.513 303.36 192.693 302.513 191.88 304.128C187.678 304.137 166.97 304.952 164.757 303.464C164.244 301.657 164.448 302.095 164.915 300.019Z"/><path fill="currentColor" transform="scale(0.71498 0.71498)" d="M832.37 300.049C837.491 300.004 855.886 299.203 859.037 300.945C859.799 302.515 859.69 301.699 859.249 303.488L858.084 304.187C853.439 304.126 834.319 305.393 831.814 302.893C831.555 300.994 831.449 301.922 832.37 300.049Z"/><path fill="currentColor" transform="scale(0.71498 0.71498)" d="M610.942 359.827C616.104 362.074 621.044 370.917 619.292 376.744C619.035 377.599 617.823 377.89 616.958 378.297L615.797 377.403C614.262 366.677 613.857 370.376 608.625 362.215C609.105 360.706 609.332 360.972 610.942 359.827Z"/></svg>