<?xml version="1.0" encoding="utf-8" ?><svg xmlns="http://www.w3.org/2000/svg" xmlns:xlink="http://www.w3.org/1999/xlink" width="538" height="537" viewBox="0 0 538 537"><path fill="currentColor" transform="scale(1.00053 0.999744)" d="M333.428 158.484C341.077 159.814 348.786 160.847 356.388 162.146C372.268 164.859 387.64 169.859 402.94 174.55C435.386 184.498 494.613 212.866 478.188 256.03C470.921 275.128 432.105 294.14 413.838 301.198C361.881 320.046 304.423 326.519 249.363 324.322C223.065 323.278 196.652 320.426 171.016 314.461C154.647 310.651 137.258 306.165 121.904 299.37C114.315 296.196 106.844 292.746 99.5063 289.028C80.9397 279.576 65.3938 271.287 58.295 249.898C55.8626 243.052 55.2358 230.682 59.5815 224.102C76.7176 198.154 108.392 182.943 137.126 173.665C141.852 172.139 150.413 169.564 154.44 168.484C160.332 166.903 197.497 159.063 199.917 160.337C200.093 160.981 199.982 161.461 199.542 162.008C196.256 166.094 191.42 169.845 189.389 174.854C188.611 176.772 188.485 182.355 188.542 184.58C188.867 197.39 186.385 211.09 196.565 220.998C211.576 235.609 244.112 239.618 264.101 239.77C287.639 239.95 324.281 237.058 342.297 220.17C349.175 213.723 349.423 202.563 349.379 193.812C349.328 183.611 349.507 173.482 341.469 165.937C338.937 163.56 335.469 161.141 333.242 158.92L333.428 158.484ZM273.79 310.653C278.626 309.692 284.571 307.996 288.304 304.821C296.511 297.842 292.818 288.486 284.458 284.116C278.053 280.767 272.223 278.997 265.108 279.564C258.626 281.195 251.048 284.57 247.54 290.617C246.025 293.181 245.648 296.26 246.5 299.114C249.63 309.558 264.62 311.557 273.79 310.653Z"/><path fill="currentColor" transform="scale(1.00053 0.999744)" d="M264.435 288.829C268.425 288.488 275.918 289.014 279.397 291.243C287.405 296.373 280.823 300.759 274.528 301.991C269.487 302.46 262.705 302.629 258.372 299.432C253.529 295.859 255.151 291.463 260.376 289.656C262.001 289.095 262.722 288.999 264.435 288.829Z"/><path fill="currentColor" transform="scale(1.00053 0.999744)" d="M523.684 273.129L524.043 273.523C525.072 294.622 524.339 316.5 523.874 337.613C523.723 344.488 523.033 354.279 519.955 360.376C516.909 366.381 512.995 371.905 508.337 376.768C503.91 381.38 498.216 385.611 493.078 389.413C471.787 405.166 446.784 416.245 421.659 424.472C408.64 428.776 395.388 432.339 381.965 435.142C374.735 436.641 366.652 437.926 359.333 439.167C319.623 446.066 279.257 448.437 239.012 446.233C212.682 444.597 183.615 440.517 157.665 435.323C129.846 429.238 101.128 420.48 75.5255 407.994C54.7824 397.878 24.2377 377.513 16.7036 354.475C14.8582 345.334 14.5026 338.477 14.0844 329.239C13.5566 318.943 13.4174 308.63 13.667 298.324C13.839 290.176 14.3327 281.432 14.4116 273.415C15.9457 276.101 17.8412 278.638 19.6778 281.108C45.1481 315.364 87.2753 333.761 127.186 345.3C143.99 350.159 161.137 354.511 178.617 357.513C196.357 360.457 214.257 362.334 232.221 363.134C259.437 364.737 286.73 364.54 313.921 362.545C347.246 360.421 380.215 354.468 412.179 344.804C429.214 339.751 448.189 332.949 464.026 324.754C475.821 318.647 486.917 311.275 497.117 302.767C505.342 295.826 512.61 288.533 518.828 279.734C520.352 277.576 521.915 275.057 523.684 273.129ZM332.515 428.517C343.479 426.693 348.118 418.754 347.967 408.209C347.862 400.921 348.601 390.792 341.815 385.562C337.055 382.347 325.649 382.475 319.899 381.837C302.26 381.03 284.277 382.244 266.634 382.134C253.461 382.052 240.245 381.54 227.056 381.568C220.496 381.582 213.531 381.264 206.996 381.562C201.574 382.227 196.599 384.651 193.142 388.993C190.236 392.643 190.661 397.937 190.374 402.2C189.421 416.388 192.447 426.139 208.357 427.908C216.123 428.771 224.383 428.837 232.277 428.992C252.885 429.43 273.753 429.47 294.366 429.34L315.511 429.286C320.331 429.274 327.801 429.316 332.515 428.517Z"/><path fill="currentColor" transform="scale(1.00053 0.999744)" d="M290.034 390.534C303.745 390.681 318.706 389.926 332.212 391.602C344.107 393.079 339.547 412.74 334.114 419.21C306.374 420.835 276.882 419.846 249.098 419.507L222.163 419.026C217.031 418.945 211.956 419.003 206.85 418.449C200.493 417.758 198.948 412.724 198.876 407.099C198.791 402.195 200.057 395.699 203.348 391.931C204.949 390.099 213.304 390.671 215.868 390.673L233.615 390.68L290.034 390.534Z"/><path fill="currentColor" transform="scale(1.00053 0.999744)" d="M41.1609 244.117C43.4654 243.985 45.7615 244.454 47.0375 246.482C49.5309 250.445 50.6251 255.359 52.7671 259.871C59.0069 273.015 71.0703 282.918 82.9692 290.862C100.119 302.311 122.592 310.312 142.363 316.016C183.459 327.718 225.996 333.588 268.725 333.453C275.375 333.432 281.645 333.001 288.195 332.802C314.605 332.001 342.096 329.096 367.987 323.55C399.923 316.491 432.511 307.092 459.515 288.005C472.305 278.965 482.078 269.756 487.95 254.945C489.099 252.048 490.672 247.738 492.398 245.27C502.059 245.208 511.476 249.796 519.656 254.681C524.491 257.569 511.321 275.382 508.888 278.442C463.079 334.938 360.82 353.031 291.615 355.13C269.04 355.755 246.447 355.091 223.948 353.141C206.919 351.816 189.969 349.627 173.161 346.584C132.924 338.989 93.0675 328.684 58.8734 305.141C44.1269 294.988 30.6765 282.716 22.107 266.718C20.6457 263.99 16.5187 257.365 17.0759 254.425C17.987 253.454 22.7391 251.451 24.1547 250.937C29.3368 249.057 35.7365 244.803 41.1609 244.117Z"/><path fill="currentColor" transform="scale(1.00053 0.999744)" d="M259.733 134.921C273.023 133.802 292.387 134.699 305.846 135.547C364.824 139.265 427.536 151.292 478.215 183.08C494.131 193.063 512.078 207.688 518.175 225.81C520.949 233.737 521.389 239.038 523.069 246.642L523.145 246.975C510.845 240.143 505.257 237.006 491.059 235.768C489.886 233.238 488.674 229.545 487.53 226.794C484.189 218.548 479.354 210.991 473.268 204.502C470.314 201.299 467.141 198.606 463.802 195.827C452.897 186.927 440.809 179.584 427.884 174.009C417.43 169.406 406.405 166.013 395.447 162.838C358.746 152.203 320.377 147.604 282.255 146.042C261.296 145.343 242.45 146.301 221.689 148.082C192.39 150.596 164.308 155 136.227 164.074C110.869 172.267 85.9687 182.797 67.444 202.675C60.4945 210.099 54.7295 217.227 50.8882 226.837C49.8054 229.546 48.8728 232.642 47.4997 235.186C43.5644 236.205 39.784 236.506 35.5332 237.842C30.6535 239.348 25.8091 241.117 20.8948 242.477C16.9603 243.566 15.4396 242.511 15.5308 238.113C15.7569 227.208 25.7407 213.126 33.0795 205.397C47.8287 189.865 67.5688 177.544 86.5745 167.932C140.201 143.556 201.56 137.655 259.733 134.921Z"/><path fill="currentColor" transform="scale(1.00053 0.999744)" d="M264.452 154.333C285.527 153.231 316.421 157.198 333.774 170.623C339.752 175.248 341.696 183.116 335.66 188.564C320.976 201.817 293.38 204.594 274.655 205.088C254.366 205.486 222.786 203.637 205.831 191.16C200.337 187.303 195.473 175.768 201.729 170.724C216.289 158.984 246.8 155.202 264.452 154.333Z"/><path fill="currentColor" transform="scale(1.00053 0.999744)" d="M261.342 85.5101C279.47 84.8604 317.05 85.8612 331.208 98C333.846 100.262 336.338 103.175 336.518 106.808C336.611 108.676 335.778 110.3 334.508 111.627C327.576 118.872 298.442 122.884 287.952 123.799C283.716 124.168 279.484 124.205 275.235 124.232C253.239 124.324 223.452 123.107 203.871 110.634C200.308 108.367 198.538 103.677 202.119 100.587C215.674 88.887 244.895 86.4522 261.342 85.5101Z"/><path fill="currentColor" transform="scale(1.00053 0.999744)" d="M338.405 198.401C339.211 198.48 339.219 198.449 339.951 198.765C342.331 202.145 339.292 210.26 336.562 213.093C322.051 228.149 295.271 229.378 275.896 231.026C275.18 231.032 275.109 231.12 274.547 230.724C273.295 228.54 273.763 217.695 273.889 214.677C290.073 214.361 307.396 211.281 322.662 205.876C327.825 204.047 333.67 199.865 338.405 198.401Z"/><path fill="currentColor" transform="scale(1.00053 0.999744)" d="M198.134 197.677C203.983 200.359 208.476 203.568 214.959 205.998C226.992 210.508 239.116 212.569 251.861 213.902C255.885 214.323 259.955 214.444 263.875 215.054C264.392 219.861 264.155 225.852 264.023 230.672C242.869 230.904 215.565 226.244 199.298 211.92C196.932 209.837 197.894 200.76 198.134 197.677Z"/><path fill="currentColor" transform="scale(1.00053 0.999744)" d="M498.206 396.949C504.766 400.271 530.496 435.652 537.305 444.063C535.154 446.424 531.503 449.094 528.875 450.885C528.28 451.191 528.508 451.088 527.77 451.107C523.337 449.012 498.659 414.108 493.487 407.918C492.706 406.983 490.312 403.764 490.522 402.352C491.772 400.638 496.222 397.703 498.206 396.949Z"/><path fill="currentColor" transform="scale(1.00053 0.999744)" d="M38.9675 395.768C42.5972 398.129 44.4195 399.429 47.4172 402.57C45.5967 406.587 36.7492 418.002 33.7964 421.988L18.6467 442.173C16.5903 444.894 14.5674 447.677 12.5073 450.395C11.7804 451.355 11.7571 451.292 10.8834 451.388C8.90694 450.195 3.21284 445.981 2.32242 444.038C2.76675 440.616 21.3059 418.168 24.6575 413.952L33.5865 402.687C35.3758 400.388 37.06 397.949 38.9675 395.768Z"/><path fill="currentColor" transform="scale(1.00053 0.999744)" d="M336.793 120.055L337.383 120.404C338.003 121.343 338.11 122.752 338.133 123.858C338.263 130.067 328.321 128.809 324.215 128.713C323.526 128.542 323.519 128.601 323.059 128.078L323.113 127.404C323.918 126.349 334.787 121.028 336.793 120.055Z"/><path fill="currentColor" transform="scale(1.00053 0.999744)" d="M201.409 121.198C204.116 121.547 216.09 125.971 217.022 128.347L216.663 128.81C213.564 129.284 205.379 129.517 202.811 127.669C201.851 126.985 201.207 125.944 201.023 124.781C200.881 123.825 200.84 122.001 201.409 121.198Z"/></svg>